<svg fill="none" height="91" viewBox="0 0 754 91" width="754" xmlns="http://www.w3.org/2000/svg"><path d="m28.68 53.96c-10.08-3.2-17.36-7.16-21.84-11.88-4.48-4.8-6.72-10.64-6.72-17.52 0-7.52 2.6-13.44 7.8-17.76001 5.28-4.39999 12.8-6.599991 22.56-6.599991 7.36 0 14.04.840001 20.04 2.520001 1.92.56 3.44 1.72 4.56 3.47999 1.2 1.68001 1.8 3.56001 1.8 5.64001v3.48c0 1.6-.68 2.84-2.04 3.72s-2.8 1.04-4.32.48c-6.8-2.4-13.08-3.6-18.84-3.6-7.36 0-11.04 2.88-11.04 8.64 0 4.88 3.2 8.36 9.6 10.44 11.04 3.36 18.68 7.28 22.92 11.76 4.32 4.48 6.48 10.36 6.48 17.64 0 17.2-10.84 25.8-32.52 25.8-6.88 0-13.12-1.08-18.72-3.24-1.92-.72-3.44-1.96-4.56-3.72-1.04-1.84-1.56-3.84-1.56-6v-3.84c0-1.44.64-2.52 1.92-3.24 1.28-.8 2.56-.88 3.84-.24 5.84 2.88 11.8 4.32 17.88 4.32 4.24 0 7.44-.8 9.6-2.4 2.24-1.68 3.36-4.04 3.36-7.08 0-2.64-.76-4.8-2.28-6.48s-4.16-3.12-7.92-4.32zm52.8787 35.04c-1.8399 0-3.4399-.68-4.7999-2.04-1.28-1.36-1.92-2.96-1.92-4.8v-73.92c0-1.84.64-3.44001 1.92-4.80001 1.36-1.35999 2.96-2.03999 4.7999-2.03999h42.4803c1.84 0 3.4.68 4.68 2.03999 1.36 1.36 2.04 2.96001 2.04 4.80001v2.76c0 1.84-.68 3.44-2.04 4.8-1.28 1.36-2.84 2.04-4.68 2.04h-27.8402c-.64 0-.96.32-.96.96v15.84c0 .72.32 1.08.96 1.08h25.4402c1.84 0 3.4.68 4.68 2.04 1.36 1.36 2.04 2.96 2.04 4.8v1.8c0 1.84-.68 3.44-2.04 4.8-1.28 1.36-2.84 2.04-4.68 2.04h-25.4402c-.64 0-.96.32-.96.96v19.44c0 .64.32.96.96.96h27.8402c1.84 0 3.4.68 4.68 2.04 1.36 1.36 2.04 2.96 2.04 4.8v2.76c0 1.84-.68 3.44-2.04 4.8-1.28 1.36-2.84 2.04-4.68 2.04zm101.9563 1.2c-13.12 0-23.44-3.88-30.96-11.64s-11.28-18.88-11.28-33.36c0-14.24 3.64-25.28 10.92-33.12 7.28-7.92 17.44-11.880001 30.48-11.880001 6.24 0 11.68.439999 16.32 1.320001 1.92.32 3.48 1.28 4.68 2.87999 1.2 1.6 1.8 3.4 1.8 5.40001v3.84c0 1.68-.68 3-2.04 3.96s-2.84 1.24-4.44.84c-4.56-1.2-9.2-1.8-13.92-1.8-7.2 0-12.84 2.44-16.92 7.32-4 4.88-6 11.96-6 21.24 0 9.12 2.16 16.2 6.48 21.24s10.08 7.56 17.28 7.56c4.8 0 9.48-.6 14.04-1.8 1.6-.4 3.08-.12 4.44.84 1.44.96 2.16 2.28 2.16 3.96v3.6c0 2-.64 3.8-1.92 5.4-1.2 1.6-2.76 2.56-4.68 2.88-4.72.88-10.2 1.32-16.44 1.32zm60.778-72.72v23.04c0 .72.32 1.08.96 1.08h5.76c5.6 0 9.88-1.16 12.84-3.48 2.96-2.4 4.44-5.72 4.44-9.96 0-8.32-5.48-12.48-16.44-12.48-2.48 0-4.64.16-6.48.48-.72.16-1.08.6-1.08 1.32zm-13.2 71.52c-1.84 0-3.44-.68-4.8-2.04s-2.04-2.96-2.04-4.8v-73.32001c0-1.99999.64-3.71999 1.92-5.15999 1.36-1.44 3-2.24 4.92-2.4 7.12-.720001 14.44-1.080001 21.96-1.080001 12 0 20.92 2.280001 26.76 6.840001 5.92 4.48 8.88 10.88 8.88 19.2 0 5.36-1.56 10.2-4.68 14.52-3.12 4.24-7.2 7.28-12.24 9.12-.08 0-.12.04-.12.12 0 .16.08.24.24.24 3.92 2.24 7.24 6.96 9.96 14.16l6.84 18.24c.56 1.52.36 2.96-.6 4.32s-2.24 2.04-3.84 2.04h-7.32c-2.08 0-3.96-.6-5.64-1.8s-2.84-2.76-3.48-4.68l-6-17.28c-1.12-3.36-2.48-5.64-4.08-6.84s-4.08-1.8-7.44-1.8h-5.04c-.64 0-.96.36-.96 1.08v24.48c0 1.84-.68 3.44-2.04 4.8s-2.96 2.04-4.8 2.04zm78.161 0c-1.84 0-3.44-.68-4.8-2.04-1.28-1.36-1.92-2.96-1.92-4.8v-73.92c0-1.84.64-3.44001 1.92-4.80001 1.36-1.35999 2.96-2.03999 4.8-2.03999h42.48c1.84 0 3.4.68 4.68 2.03999 1.36 1.36 2.04 2.96001 2.04 4.80001v2.76c0 1.84-.68 3.44-2.04 4.8-1.28 1.36-2.84 2.04-4.68 2.04h-27.84c-.64 0-.96.32-.96.96v15.84c0 .72.32 1.08.96 1.08h25.44c1.84 0 3.4.68 4.68 2.04 1.36 1.36 2.04 2.96 2.04 4.8v1.8c0 1.84-.68 3.44-2.04 4.8-1.28 1.36-2.84 2.04-4.68 2.04h-25.44c-.64 0-.96.32-.96.96v19.44c0 .64.32.96.96.96h27.84c1.84 0 3.4.68 4.68 2.04 1.36 1.36 2.04 2.96 2.04 4.8v2.76c0 1.84-.68 3.44-2.04 4.8-1.28 1.36-2.84 2.04-4.68 2.04zm70.128-70.68c-1.84 0-3.44-.68-4.8-2.04s-2.04-2.96-2.04-4.8v-3.24c0-1.84.68-3.44001 2.04-4.80001 1.36-1.35999 2.96-2.03999 4.8-2.03999h53.52c1.84 0 3.44.68 4.8 2.03999 1.36 1.36 2.04 2.96001 2.04 4.80001v3.24c0 1.84-.68 3.44-2.04 4.8s-2.96 2.04-4.8 2.04h-15.36c-.64 0-.96.32-.96.96v62.88c0 1.84-.68 3.44-2.04 4.8s-2.96 2.04-4.8 2.04h-7.2c-1.84 0-3.44-.68-4.8-2.04s-2.04-2.96-2.04-4.8v-62.88c0-.64-.32-.96-.96-.96zm95.653-.84v26.16c0 .56.36.92 1.08 1.08 2.72.32 4.88.48 6.48.48 5.76 0 10.2-1.32 13.32-3.96 3.2-2.72 4.8-6.48 4.8-11.28 0-9.52-6.04-14.28-18.12-14.28-2 0-4.2.2-6.6.6-.64.16-.96.56-.96 1.2zm-13.2 71.52c-1.84 0-3.44-.68-4.8-2.04s-2.04-2.96-2.04-4.8v-73.32001c0-1.91999.64-3.63999 1.92-5.15999s2.88-2.36 4.8-2.52001c6.8-.639993 13.36-.959991 19.68-.959991 25.6 0 38.4 9.520001 38.4 28.560001 0 10.32-3 18.16-9 23.52-5.92 5.28-14.64 7.92-26.16 7.92-3.04 0-5.88-.12-8.52-.36-.72 0-1.08.32-1.08.96v21.36c0 1.84-.68 3.44-2.04 4.8s-2.96 2.04-4.8 2.04zm76.992 0c-1.84 0-3.44-.68-4.8-2.04s-2.04-2.96-2.04-4.8v-73.92c0-1.84.68-3.44001 2.04-4.80001 1.36-1.35999 2.96-2.03999 4.8-2.03999h7.44c1.84 0 3.4.68 4.68 2.03999 1.36 1.36 2.04 2.96001 2.04 4.80001v62.88c0 .64.36.96 1.08.96h29.16c1.84 0 3.44.68 4.8 2.04s2.04 2.96 2.04 4.8v3.24c0 1.84-.68 3.44-2.04 4.8s-2.96 2.04-4.8 2.04zm98.891-69.84-8.76 34.44c-.08.24-.04.48.12.72.24.16.48.24.72.24h16.08c.24 0 .44-.08.6-.24.24-.24.32-.48.24-.72l-8.76-34.44c0-.08-.04-.12-.12-.12s-.12.04-.12.12zm-32.04 69.84c-1.68 0-3.04-.68-4.08-2.04-.96-1.36-1.16-2.84-.6-4.44l24.24-74.64001c.64-1.92 1.76-3.48 3.36-4.67999 1.68-1.2 3.52-1.8 5.52-1.8h7.92c2.08 0 3.96.6 5.64 1.8 1.68 1.19999 2.8 2.75999 3.36 4.67999l24.12 74.64001c.56 1.6.32 3.08-.72 4.44-.96 1.36-2.28 2.04-3.96 2.04h-8.04c-2 0-3.8-.6-5.4-1.8-1.6-1.28-2.64-2.88-3.12-4.8l-2.88-11.4c-.08-.64-.48-.96-1.2-.96h-24c-.64 0-1.04.32-1.2.96l-2.88 11.4c-.48 1.92-1.52 3.52-3.12 4.8-1.6 1.2-3.4 1.8-5.4 1.8zm87.368 0c-1.84 0-3.44-.68-4.8-2.04s-2.04-2.96-2.04-4.8v-73.92c0-1.84.68-3.44001 2.04-4.80001 1.36-1.35999 2.96-2.03999 4.8-2.03999h5.88c4.56 0 7.88 2 9.96 6l25.2 47.64c0 .08.04.12.12.12s.12-.04.12-.12v-46.8c0-1.84.68-3.44001 2.04-4.80001 1.36-1.35999 2.96-2.03999 4.8-2.03999h5.88c1.84 0 3.44.68 4.8 2.03999 1.36 1.36 2.04 2.96001 2.04 4.80001v73.92c0 1.84-.68 3.44-2.04 4.8s-2.96 2.04-4.8 2.04h-5.88c-4.56 0-7.88-2-9.96-6l-25.2-47.64c0-.08-.04-.12-.12-.12s-.12.04-.12.12v46.8c0 1.84-.68 3.44-2.04 4.8s-2.96 2.04-4.8 2.04z" fill="#fff"/></svg>